# xmcd
#
# Track frame offsets: 
#        150
#        13531
#        30408
#        39745
#        56165
#        65770
#        77092
#        98555
#        109592
#        120604
#        123445
#        159693
#        202006
#        254673
#
# Disc length: 3530 seconds
#
# Revision: 0
# Processed by: cddbd v1.5.2PL0 Copyright (c) Steve Scherf et al.
# Submitted via: ExactAudioCopy v1.0b6
#
DISCID=c00dc80e
DTITLE=Various Artist - A World of Music "Tibet"
DYEAR=1900
DGENRE=Ethnic
TTITLE0=Auspicious verses of the secret Aja Griva
TTITLE1=The practice of Chod
TTITLE2=Kui.Kyon.Pan (The Praise to Tara) - I
TTITLE3=Ganden La Ghiema (Prayer to Lama Tzong Khapa)
TTITLE4=Djam.Mon (Prayer of universal love)
TTITLE5=Tamdrim Yangsa Shagpa (Confession and purification of Secret H
TTITLE5=ayagriva)
TTITLE6=Dag Shen ma (Exchanging Oneself with others)
TTITLE7=Kui.Kyon.Pan (The praise to Tara) - II
TTITLE8=Guea nGuoa (Dedication of the merits of the 10th chapter of th
TTITLE8=e Bodhisattvacaryavatara)
TTITLE9=The Song of Vajra - Part I
TTITLE10=The Song of Vajra - Part II
TTITLE11=Chamsim Sheg Tor-Uang Demma (Dedicated to the Special Patron 
TTITLE11=of Sera Je Monastery)
TTITLE12=Lamrim Dundu (The graded path)
TTITLE13=Tandrim Yangsa Chendren (The invocation of secret Hayagriva)
EXTD=
EXTT0=
EXTT1=
EXTT2=
EXTT3=
EXTT4=
EXTT5=
EXTT6=
EXTT7=
EXTT8=
EXTT9=
EXTT10=
EXTT11=
EXTT12=
EXTT13=
PLAYORDER=
